<svg xmlns="http://www.w3.org/2000/svg" width="502" height="322" fill="none" xmlns:v="https://vecta.io/nano"><style><![CDATA[.B{opacity:.1}.C{fill:#000}.D{opacity:.05}.E{fill:#f79c94}.F{fill:#00404d}.G{fill:#ffeabf}]]></style><path d="M240.696 321.84c132.932 0 240.696-4.294 240.696-9.591s-107.764-9.592-240.696-9.592S0 306.951 0 312.249s107.763 9.591 240.696 9.591z" class="F"/><path d="M227.866 303.708l-69.752 12.332-1.585-.137-61.297-5.344v-67.141l75.036-10.961 54.427 5.48.016.297.005.146 3.15 65.328z" class="E"/><g class="C"><path d="M227.866 303.708l-69.752 12.332-1.585-.137v-68.831l68.182-8.838 3.155 65.474z" class="B"/><path d="M224.716 238.38l-.021.014-68.166 8.678-61.297-3.654 75.036-10.961 54.427 5.48.016.297.005.146z" class="D"/></g><path d="M304.487 306.448l-69.752 12.332-1.585-.137-61.297-5.344v-67.14l75.036-10.962 54.427 5.481.016.297.005.146 3.15 65.327z" class="G"/><g class="C"><path d="M304.487 306.448l-69.752 12.332-1.585-.137v-68.83l68.182-8.838 3.155 65.473z" class="B"/><path d="M301.337 241.121l-.021.014-68.166 8.678-61.297-3.654 75.036-10.962 54.427 5.481.016.297.005.146z" class="D"/></g><path d="M256.4 240.678l-69.751 12.332-1.585-.137-61.297-5.344v-67.14l75.036-10.962 54.427 5.481.016.297.005.146 3.149 65.327z" class="G"/><g class="C"><path d="M256.401 240.678l-69.752 12.332-1.585-.137v-68.831l68.182-8.837 3.155 65.473z" class="B"/><path d="M253.251 175.351l-.021.013-68.166 8.678-61.297-3.653 75.036-10.962 54.427 5.481.016.297.005.146z" class="D"/></g><path d="M296.032 243.491l-36.403 6.44-.83-.073-31.99-2.79v-35.041l39.161-5.723 28.408 2.864.011.155v.073l1.643 34.095z" class="E"/><g class="C"><path d="M296.032 243.491l-36.403 6.44-.829-.073v-35.922l35.589-4.613 1.643 34.168z" class="B"/><path d="M294.389 209.396l-.011.009-35.579 4.531-31.99-1.909 39.161-5.723 28.408 2.864.011.155v.073z" class="D"/></g><path d="M198.274 175.437l-36.403 6.436-.829-.069-31.991-2.79v-35.041l39.161-5.723 28.408 2.864.011.155v.073l1.643 34.095z" class="G"/><g class="C"><path d="M198.274 175.437l-36.403 6.436-.829-.069v-35.922l35.589-4.613 1.643 34.168z" class="B"/><path d="M196.631 141.342l-.011.009-35.578 4.531-31.991-1.909 39.161-5.723 28.408 2.864.011.155v.073z" class="D"/></g><path d="M262.213 174.067l-36.403 6.436-.829-.069-31.991-2.79v-35.041l39.161-5.723 28.408 2.863.011.156v.073l1.643 34.095z" class="E"/><g class="C"><path d="M262.213 174.067l-36.403 6.436-.83-.069v-35.922l35.59-4.613 1.643 34.168z" class="B"/><path d="M260.57 139.972l-.011.009-35.578 4.531-31.991-1.909 39.161-5.723 28.408 2.863.011.156v.073z" class="D"/></g><path d="M281.236 138.898l-36.403 6.436-.829-.069-31.991-2.79v-35.041l39.161-5.723 28.408 2.864.011.155v.073l1.643 34.095z" class="G"/><g class="C"><path d="M281.236 138.898l-36.403 6.436-.829-.069v-35.922l35.589-4.613 1.643 34.168z" class="B"/><path d="M279.593 104.803l-.011.009-35.578 4.531-31.991-1.909 39.161-5.723 28.408 2.864.011.155v.073z" class="D"/></g><g stroke="#00404d" class="E"><path d="M306.03 67.264l.499-.019c-.072-1.933-.392-3.852-.952-5.723l-.132-.498-.162-.626c-.084-.363-.13-.669-.115-.922.014-.242.082-.406.2-.529.126-.129.365-.269.83-.349h0 .002c1.057-.185 2.32-.146 3.639-.043l1.368.121 2.457.185 7.398.251-15.032 8.151zm0 0l.496.064c-.209 1.602-1.016 3.025-1.841 4.351l-.368.585c-.716 1.137-1.397 2.218-1.793 3.381-1.362 4.031.971 8.47 4.398 11.812 2.746 2.639 6.073 4.785 9.793 6.309s7.755 2.398 11.872 2.566h.009.008c1.164.087 2.336-.023 3.45-.322.979-.347 1.856-.868 2.574-1.526l.01-.009h0c2.492-2.167 3.85-5.18 4.391-8.255.542-3.087.337-6.237.12-9.43l-.001-.017v-.017c0-.577-.121-1.152-.357-1.696-.315-.512-.747-.97-1.276-1.344l-.011-.008-.011-.009c-1.845-1.465-3.879-2.744-6.063-3.81l-.19-.091c-.875-.417-1.919-.915-2.567-1.758l-.011-.014-.01-.015c-.452-.682-.749-1.437-.872-2.224l-.678-2.979-.005-.021-.003-.021c-.108-.772-.412-1.52-.895-2.188-.503-.577-1.257-.935-2.174-1.152-.924-.219-1.959-.283-2.963-.317l-15.032 8.151z"/><path d="M306.531 67.287l-.005.041c-.209 1.602-1.016 3.025-1.841 4.351l-.368.585c-.716 1.137-1.397 2.218-1.793 3.38-1.362 4.031.971 8.47 4.398 11.812 2.745 2.639 6.073 4.785 9.793 6.31s7.755 2.398 11.872 2.566h.009.008c1.164.087 2.336-.023 3.45-.322.979-.347 1.856-.868 2.574-1.526l.01-.009h0c2.492-2.167 3.85-5.18 4.391-8.255.542-3.087.337-6.237.12-9.43l-.001-.017v-.017c0-.577-.121-1.152-.357-1.696-.315-.512-.747-.97-1.276-1.344l-.011-.008-.011-.009c-1.845-1.465-3.879-2.744-6.063-3.81l-.19-.091c-.875-.417-1.919-.915-2.567-1.758l-.011-.014-.01-.015c-.452-.682-.749-1.437-.872-2.224l-.678-2.979-.005-.021-.003-.021c-.108-.772-.412-1.52-.895-2.188-.503-.577-1.257-.935-2.174-1.152-.924-.219-1.959-.283-2.963-.317l-14.531 8.174zm0 0l-.002-.042c-.072-1.933-.392-3.852-.952-5.723l-.132-.498-.162-.626c-.084-.363-.13-.669-.115-.922.014-.242.082-.406.2-.529.126-.129.365-.269.83-.349h.002c1.057-.185 2.32-.146 3.639-.043l1.368.121c.854.08 1.701.159 2.457.185l7.398.251-14.531 8.174z" class="B"/></g><path d="M353.012 200.978l-3.139 29.743c-.819 7.801-1.654 15.634-3.26 23.335-.529 2.653-1.205 5.293-1.977 7.91-2.145 7.267-5.258 14.369-6.262 21.819-.031.214-.058.457-.084.653-.206 1.644-.386 3.307-1.057 4.841-.528 1.138-1.273 2.174-1.818 3.298-1.057 2.247-1.226 4.732-1.358 7.166-3.809-1.858-7.98-3.097-12.307-3.654-2.113-.269-4.412-.456-5.812-1.827-1.586-1.489-1.401-3.768-1.136-5.768l2.483-18.626a42.65 42.65 0 0 1 1.585-7.911c.286-.863.629-1.712.978-2.562.481-1.169.967-2.339 1.332-3.54a37.38 37.38 0 0 0 1.046-5.86L325 231.269l.048-.329c1.347-9.463 2.372-18.973 2.076-28.505a95.8 95.8 0 0 0-.216-4.238c-.148-2.051-.365-3.138 1.585-4.422 2.172-1.415 5.031-2.407 7.514-3.334 1.337-.502 16.059-5.024 16.381-4.028.684 2.115 1.039 4.299 1.057 6.495a62.58 62.58 0 0 1-.433 8.07h0z" class="F"/><path d="M346.613 254.056l-1.977 7.91c-2.145 7.267-5.258 14.369-6.262 21.819-.031.214-.058.457-.084.653-6.563-8.103-12.09-16.817-18.495-25.006.481-1.17.967-2.339 1.332-3.54a37.44 37.44 0 0 0 1.099-5.897L325 231.269l.048-.329c.37 1.325.902 2.613 1.585 3.841 4.301 7.555 14.521 11.373 19.52 18.603.165.226.319.449.46.672z" class="B C"/><path d="M293.358 187.637c.217 6.056 1.337 12.062 2.457 18.046l2.31 12.332c1.263 6.759 2.584 13.651 6.283 19.703 2.769 4.531 6.753 8.395 10.362 12.455 8.867 9.985 15.53 21.298 23.937 31.575 2.447 2.987 5.94 6.221 10.109 5.595 2.737-.407 4.724-2.38 6.87-3.896 2.536-1.791 5.59-3.101 7.588-5.349s2.388-5.974-.317-7.572c-.925-.544-2.051-.749-3.097-1.096-4.19-1.371-6.906-4.915-8.629-8.496s-2.774-7.422-5.073-10.751c-4.999-7.231-15.224-11.049-19.525-18.608-2.41-4.229-2.642-9.135-2.822-13.825l-.47-12.017c-.053-1.316-.09-2.681.528-3.882 1.644-3.198 6.611-3.499 10.637-3.905 4.567-.461 8.99-1.667 13.037-3.554 2.319-1.082 4.581-2.462 5.812-4.471 1.131-1.827 1.284-3.979 1.416-6.052l1.395-21.782c.122-1.873.228-3.814-.528-5.568-1.918-4.412-8.365-5.855-13.813-5.645-10.135.393-19.488 4.161-29.063 6.71-2.373.63-4.756 1.196-7.202 1.621-2.114.37-4.756.219-6.785.813-3.636 1.06-3.546 7.938-4.059 10.788-1.057 5.562-1.512 11.196-1.358 16.831h0z" class="F"/><path d="M347.442 288.265c.893.781 1.184 1.923 1.416 3.001 1.292 5.982 1.964 12.052 2.008 18.137-.058.568.073 1.138.375 1.644.254.3.595.537.989.686 2.584 1.064 5.58-.421 7.736-2.051 3.989-3.019 7.366-7.075 7.593-11.656.058-1.179-.095-2.371.143-3.535.349-1.727 1.516-3.229 2.542-4.737 1.754-2.569 3.171-5.299 4.227-8.139.391-1.068.655-2.411-.317-3.156-.341-.234-.73-.409-1.147-.516l-11.678-3.745c-1.015-.324-3.53 5.261-3.926 5.874-.978 1.493-1.95 2.338-3.91 2.685s-4.381-.155-6.252.708c-3.17 1.457-1.59 3.243.201 4.8zm-18.008 3.449c-.217-.373-.519-.704-.888-.973a4.41 4.41 0 0 0-1.792-.525c-2.219-.329-4.85-.544-6.388.886-1.437 1.338-1.189 3.517-2.389 5.024-.38.457-.898.868-1.226 1.37-.407.769-.588 1.613-.528 2.457l.063 6.979c.154 1.946.529 3.988 1.94 5.513 2.261 2.448 6.341 2.8 9.955 2.955l2.933.133a6.7 6.7 0 0 0 2.399-.192c.481-.191.912-.464 1.268-.802a3.33 3.33 0 0 0 .803-1.167c1.528-3.279-.887-6.81-2.377-10.098-1.718-3.787-1.411-7.984-3.773-11.56z" class="E"/><path d="M305.184 50.524a1.82 1.82 0 0 1 .164-.977c.428-.653 1.548-.457 2.394-.292 3.398.74 6.98.068 10.484.242s7.445 1.685 8.148 4.654c2.542-1.555 4.732-3.499 6.463-5.737.972-1.256 1.817-2.695 1.685-4.202-.19-2.174-2.298-3.8-4.227-5.179l-5.813-4.111c-.766-.607-1.649-1.093-2.61-1.434-1.342-.397-2.811-.206-4.228-.206-4.227 0-8.761-1.667-12.528 0-1.586.699-2.764 1.9-3.906 3.069l-5.194 5.316c-.393.339-.68.758-.835 1.22-.148.648.238 1.288.375 1.941.243 1.188-.348 2.457.106 3.599.756 1.891 3.419 2.16 5.046 3.247.603.402 1.554 1.777 2.278 1.758 1.273-.023 2.161-2.032 2.198-2.909z" class="F"/><path d="M330.144 51.817c0 7.604-7.158 13.887-16.146 13.887s-16.145-6.283-16.145-13.887 7.158-13.887 16.145-13.887 16.146 6.283 16.146 13.887z" stroke="#00404d" class="E"/><path d="M317.898 83.3c-.564-1.395-1.626-2.598-3.032-3.437s-3.085-1.27-4.794-1.231c-.49.081-.997.025-1.448-.16-.255-.169-.46-.388-.597-.639a23.72 23.72 0 0 1-2.425-4.96c-.264-.763-.629-1.663-1.522-1.859-.719-.16-1.453.242-1.934.731-.426.525-.889 1.026-1.385 1.503-2.113 1.617-5.812.142-8.026 1.626-.365.242-.666.553-1.057.776a5.23 5.23 0 0 1-1.221.457c-4.298 1.209-8.511 2.631-12.618 4.261 1.479 7.691 2.99 15.529 6.457 22.722 1.648 3.426 3.514 6.783 4.835 10.313 2.927 7.824 3.054 16.196 3.091 24.422 0 5.627 0 11.373-2.114 16.698-.475 1.206-1.056 2.403-1.189 3.654s.302 2.668 1.491 3.417c.688.392 1.477.632 2.298.699 3.652.456 7.329-.375 10.923-1.097 9.633-1.927 19.461-3.032 29.264-4.11l16.434-1.827a10.83 10.83 0 0 0 3.403-.763c3.006-1.42 3.292-5.33 1.421-7.815-.893-1.192-2.156-2.169-2.912-3.43s-.813-3.033.481-3.905c2.642-1.781 1.85-5.083 1.977-7.97.352-8.075.304-16.144-.143-24.207a40.89 40.89 0 0 1-.095-5.024c.185-2.841.999-5.623 1.812-8.386l4.994-16.991c-1.305-1.781-3.805-2.914-6.167-3.426s-4.83-.662-7.16-1.288c-4.756-1.279-9.025-4.522-14.008-4.22-.378.006-.75.084-1.089.228-1.12.553-.946 1.95-1.014 3.065-.159 2.471-2.262 4.531-4.577 5.979s-4.967 2.498-7.096 4.147c-.37.241-.674.549-.892.903s-.342.744-.366 1.144h0z" fill="#00a499"/><g class="E"><path d="M251.946 99.418a20.91 20.91 0 0 1-3.498 1.558c-1.163.397-2.405.712-3.356 1.406-.471.353-.866.776-1.168 1.247-.563.864-.847 1.842-.824 2.833s.354 1.959.958 2.802 1.457 1.531 2.473 1.991a7.25 7.25 0 0 0 3.301.627c1.527-.068 2.97-.602 4.37-1.128l11.742-4.416c1.987-.745 4.132-1.613 5.073-3.303.107-.158.149-.343.116-.525-.091-.199-.264-.362-.486-.457-2.646-1.487-4.961-3.375-6.833-5.572-.481-.566-1.057-1.9-1.754-2.243-2.484-1.192-8.122 4.065-10.114 5.179zm125.51-3.585l4.328 4.275 2.706 2.813c2.08 2.477 3.749 5.194 4.956 8.071.941 2.133 1.723 4.407 1.395 6.673-.219 1.161-.582 2.299-1.083 3.393-.793 2.104-1.777 4.151-2.943 6.121-.974 1.494-2.075 2.925-3.292 4.279-3.352 3.839-7.02 7.465-10.976 10.848-1.479 1.265-2.113 3.316-2.742 5.024-1.189 3.156-4.016 5.618-6.748 7.947-.879.803-1.851 1.525-2.901 2.156-1.573.877-3.413 1.329-5.284 1.297-.817.004-1.625-.141-2.373-.425-1.871-.767-2.822-2.635-3.017-4.416-.173-1.619.14-3.249.909-4.732 2.483-4.755 8.861-6.815 13.369-10.286 2.642-2.032 4.666-4.59 6.663-7.116 1.353-1.579 2.483-3.291 3.366-5.102 1.004-2.324.613-5.074 1.496-7.431.369-1 1.056-1.9 1.432-2.891s.502-2.165-.201-3.019c-.527-.546-1.2-.972-1.961-1.242-2.88-1.261-6.103-2.887-6.652-5.641-.221-1.525.241-3.066 1.289-4.307a19.28 19.28 0 0 1 3.63-3.288c1.252-.978 3.371-2.06 4.634-3.001z"/><path d="M249.166 105.383c-.761-1.334-1.717-2.695-3.26-3.357a6.82 6.82 0 0 0-4.756 0 18.78 18.78 0 0 0-4.164 2.174l-3.73 2.38a8.8 8.8 0 0 0-2.214 1.767c-.592.838-.984 1.77-1.152 2.741-.529 2.224-.957 4.512-.587 6.764.592 3.654 3.128 6.815 5.918 9.591 1.744 1.727 3.9 3.472 6.553 3.549 1.146.032 2.42-.36 2.895-1.26a2.75 2.75 0 0 0 .259-1.124c.286-4.056-1.395-8.016-3.35-11.711-.528-1.004-1.099-2.046-1.057-3.146-.016-.187.04-.374.159-.53.168-.152.392-.248.634-.27 2.679-.457 7.298 1.343 9.173-1.228 1.216-1.699-.454-4.828-1.321-6.34z"/></g><path d="M304.307 45.998c-.033-.333.025-.668.169-.977.428-.658 1.548-.457 2.394-.292 3.398.74 6.98.069 10.484.242s7.44 1.685 8.148 4.654c2.539-1.557 4.729-3.501 6.463-5.737.972-1.261 1.817-2.699 1.685-4.207-.19-2.174-2.304-3.8-4.227-5.175l-5.813-4.111c-.764-.607-1.645-1.093-2.605-1.434-1.347-.397-2.811-.206-4.227-.206-4.228 0-8.761-1.667-12.529 0-1.585.699-2.764 1.9-3.905 3.069l-5.2 5.316c-.391.34-.676.759-.829 1.22-.148.649.237 1.288.375 1.941.243 1.188-.349 2.457.106 3.594.755 1.895 3.418 2.165 5.046 3.252.602.402 1.553 1.777 2.277 1.758 1.253-.023 2.141-2.032 2.188-2.91z" class="F"/><path d="M268.956 85.424a6.62 6.62 0 0 0-1.744 1.402c-.608.799-.735 1.827-1.258 2.649-1.12 1.799-3.746 2.444-5.379 3.919-.265.202-.45.47-.528.767-.01.402.145.793.438 1.105l7.895 10.725c2.642.2 5.147-1.225 7.778-1.033.978.069 1.987.361 2.928.11a8.88 8.88 0 0 0 1.876-.991c1.585-.859 3.656-.959 4.972-2.087s1.427-2.787 1.411-4.326a14.84 14.84 0 0 0-.47-3.974c-1.163-4.111-4.804-7.28-7.087-10.925-1.115-1.777-1.717-2.814-4.068-1.594s-4.54 2.846-6.764 4.252zm95.861-5.422a18.02 18.02 0 0 1 3.973 3.005c1.2 1.338 1.881 2.983 3.039 4.353s2.642 2.357 3.91 3.581c1.929 1.854 3.234 4.111 4.513 6.353-3.131 3.521-6.542 6.848-10.209 9.957-.409.416-.949.72-1.554.877a2.84 2.84 0 0 1-1.206-.147c-.382-.135-.719-.35-.982-.625-.57-.511-.972-1.151-1.516-1.685-1.282-1.143-2.992-1.857-4.825-2.014-1.817-.153-3.647-.176-5.469-.069-.4.041-.805-.018-1.168-.169-.269-.16-.488-.377-.634-.63-2.113-3.143-1.453-7.089-.697-10.679l1.728-8.221a16.56 16.56 0 0 1 1.442-4.567c.656-1.21 2.114-3.266 3.921-2.9s4.206 2.631 5.734 3.581z" fill="#00a499"/><path d="M214.127 140.269l-36.403 6.435-.83-.068-31.99-2.791v-35.041l39.161-5.723 28.408 2.864.01.155v.073l1.644 34.096z" class="E"/><g class="C"><path d="M214.127 140.269l-36.403 6.435-.83-.068v-35.923l35.589-4.613 1.644 34.169z" class="B"/><path d="M212.483 106.173l-.01.009-35.579 4.531-31.99-1.909 39.161-5.723 28.408 2.864.01.155v.073z" class="D"/></g><path d="M233.15 105.557l-36.403 6.44-.83-.073-31.99-2.791V74.092l39.161-5.723 28.408 2.864.011.155v.073l1.643 34.096z" class="G"/><g class="C"><path d="M233.15 105.557l-36.403 6.44-.83-.073V76.001l35.59-4.613 1.643 34.169z" class="B"/><path d="M231.507 71.461l-.011.009-35.579 4.531-31.99-1.909 39.161-5.723 28.408 2.864.011.155v.073z" class="D"/></g></svg>