<svg xmlns="http://www.w3.org/2000/svg" width="502" height="322" fill="none" xmlns:v="https://vecta.io/nano"><g clip-path="url(#B)"><path d="M438.975 92.79h-67.107c-9.083-23.241-13.028-44.851 0-61.072a30.22 30.22 0 0 1 2.554-12.138c1.686-3.848 4.158-7.345 7.273-10.29s6.815-5.281 10.886-6.875S401.015 0 405.421 0h0c5.355-.004 10.633 1.206 15.392 3.527s8.86 5.687 11.96 9.814c5.303 7.04 6.365 16.115 3.324 24.264-5.419 14.525-2.11 34.345 2.878 55.184z" fill="#00404d"/><g fill="#f79c94"><path d="M474.417 321.727c-1.942 0-3.833-.589-5.396-1.679s-2.713-2.626-3.284-4.381l-2.765-8.493c-.639-1.966-.762-4.049-.358-6.069l1.883-9.408h13.207l5.481 19.211c.363 1.272.411 2.606.14 3.899s-.852 2.51-1.699 3.556-1.94 1.894-3.19 2.477a9.52 9.52 0 0 1-4.019.887zm-96.227 0c1.942 0 3.832-.589 5.395-1.679s2.713-2.626 3.284-4.381l2.765-8.493c.639-1.966.762-4.049.358-6.069l-1.883-9.408h-13.207l-5.48 19.211a8.12 8.12 0 0 0-.141 3.899c.27 1.293.852 2.51 1.7 3.556s1.939 1.894 3.189 2.477a9.52 9.52 0 0 0 4.02.887z"/></g><path d="M478.775 292.709H464.14l-63.537-114.047-11.722 114.047h-12.908c-6.622-71.818-22.734-140.226 0-166.009l53.186 4.724 49.616 161.285z" fill="#00404d"/><g fill="#f79c94" stroke="#00404d"><path d="M433.936 62.69l-5.56 34.493h-38.797l-6.588-28.842c6.4-1.875 10.47-4.948 12.591-9.033 2.092-4.03 2.238-8.951 1-14.475l20.364-1.283c.605 4.433 1.496 8.795 3.908 12.258 2.455 3.526 6.437 6.056 13.082 6.882z"/><path d="M420.984 32.729c0 9.015-7.74 16.371-17.347 16.371s-17.348-7.356-17.348-16.371 7.74-16.371 17.348-16.371 17.347 7.356 17.347 16.371z"/></g><path d="M428.802 134.798c-22.48 8.068-40.767 7.816-53.543-3.374 5.765-17.972 6.11-40.102 3.569-64.447l7.139-3.037 2.499 21.595 35.338-1.687 7.853-23.619 7.853 1.687c.602 29.284-1.253 55.629-10.708 72.882z" fill="#00a499"/><g fill="#f79c94" stroke="#00404d"><path d="M449.005 171.224l-.002.087.026.083 4.198 12.894a6.13 6.13 0 0 1 .205 2.984c-.18.995-.605 1.94-1.243 2.756a6.79 6.79 0 0 1-2.436 1.943c-.964.46-2.03.7-3.113.7a7.27 7.27 0 0 1-2.81-.564c-.884-.372-1.673-.914-2.317-1.59s-1.13-1.471-1.426-2.332a6.12 6.12 0 0 1-.298-2.669l1.646-14.897.007-.061-.008-.06-6.771-50.524 4.891-21.792h11.578l-2.127 73.042zm-99.052-2.398l.046-.072.019-.083 16.66-71.392 14.251 2.66-3.849 22.232-19.527 47.502-.023.057-.009.06-2.219 14.83c-.134.895-.466 1.756-.975 2.525s-1.186 1.432-1.987 1.941-1.707.856-2.661 1.015-1.933.126-2.873-.096a7.04 7.04 0 0 1-2.836-1.389c-.815-.665-1.452-1.5-1.86-2.435s-.579-1.947-.498-2.954.411-1.984.965-2.852l7.376-11.549z"/></g><g fill="#00a499"><path d="M460.57 100.381l-23.558-.337V61.241l3.627.5c3.85.531 7.399 2.27 10.077 4.938s4.329 6.11 4.688 9.772l5.166 23.931zm-100.66 4.049l23.559-.337V65.29l-3.627.5c-3.85.531-7.4 2.27-10.078 4.938s-4.329 6.109-4.687 9.772l-5.167 23.931z"/></g><path d="M420.056 24.631c-7.581 4.055-22.151 5.91-32.839 3.037l-3.57-17.546h35.339l1.07 14.509z" fill="#00404d"/><path d="M171.38 232.89H55.134v88.563H171.38V232.89z" fill="#ffeabf"/><path d="M123.089 295.759h-19.664v25.148h19.664v-25.148z" fill="#00404d" fill-opacity=".5"/><g filter="url(#A)"><path d="M321.824 239.017H210.441v86.436h111.383v-86.436z" fill="#ffeabf"/></g><g fill="#00404d"><path d="M275.964 295.746h-19.663v25.148h19.663v-25.148z" fill-opacity=".5"/><path d="M501.788 322H37v-2h465l-.212 2z"/><path d="M289.266 254.707h-46.267v13.667h46.267v-13.667z" fill-opacity=".5"/></g><g fill="#ffeabf"><path d="M321.64 235H210.36L201 262h130l-9.36-27z"/><path opacity=".1" d="M321.64 235H210.36L201 262h130l-9.36-27z"/></g><path d="M136.084 252.707H89.816v13.667h46.268v-13.667z" fill="#00404d" fill-opacity=".5"/></g><defs><filter id="A" x="210.441" y="239.017" width="111.383" height="88.436" filterUnits="userSpaceOnUse" color-interpolation-filters="sRGB"><feFlood flood-opacity="0"/><feBlend in="SourceGraphic" result="B"/><feColorMatrix in="SourceAlpha" values="0 0 0 0 0 0 0 0 0 0 0 0 0 0 0 0 0 0 127 0" result="C"/><feOffset dy="33"/><feGaussianBlur stdDeviation="1"/><feComposite in2="C" operator="arithmetic" k2="-1" k3="1"/><feColorMatrix values="0 0 0 0 0 0 0 0 0 0.250981 0 0 0 0 0.301961 0 0 0 0.5 0"/><feBlend in2="B"/></filter><clipPath id="B"><path fill="#fff" d="M0 0h502v322H0z"/></clipPath></defs></svg>